<?xml version="1.0" encoding="UTF-8"?>
<svg id="Layer_1" data-name="Layer 1" xmlns="http://www.w3.org/2000/svg" width="191.5" height="194.19" viewBox="0 0 191.5 194.19">
  <defs>
    <style>
      .cls-1 {
        fill: #808285;
      }

      .cls-2 {
        fill: #a97c50;
      }

      .cls-3 {
        fill: #a49664;
      }

      .cls-4 {
        fill: #005035;
      }
    </style>
  </defs>
  <path class="cls-3" d="M143.23,66.86c7.61,13.08,9.67,28.34,5.8,42.96-3.86,14.63-13.19,26.88-26.27,34.49s-28.33,9.68-42.96,5.81c-2.56-.67-5.03-1.53-7.43-2.52l34.92-54.84,2.61-1.07-.02-.04.07.06.53-.59,7.32,2.51,16.64,21.77,4.01-11.63-17.48-14.88-6.09-2.72,2.08-2.35-.22-.34c-1.57-3.01-5.84-7.95-16.6-7.36l-.36-.14-.55,1.42c-3.51-2.1-7.2-3.88-10.99-5.3-18.36-6.87-35.22-3.87-36.41-3.04l-.27.21v.5s.16.14.16.14c.24.23.52.22,2.07.18,3.92-.11,14.35-.42,26.38,4.17,5.89,2.24,11.48,5.41,16.63,9.41l-.21.56c-.07.01-.15.02-.22.03l.03.15h-.02l-.06,2.18-37.95,52.61c-5.17-4.24-9.6-9.4-13.06-15.35-7.61-13.08-9.68-28.34-5.81-42.97,6.7-25.37,29.69-42.18,54.78-42.18,4.77,0,9.63.61,14.46,1.89,14.63,3.86,26.87,13.19,34.49,26.27Z"/>
  <path class="cls-4" d="M190.08,90.1c.21,3.54.22,7.11.03,10.63l-15.23,2.44-.04.39c-.42,4.23-1.18,8.43-2.25,12.49-1.07,4.05-2.49,8.08-4.21,11.97l-.16.35,12.04,9.65c-1.57,3.16-3.35,6.26-5.28,9.23l-14.41-5.5-.23.31c-4.95,6.91-10.95,12.95-17.83,17.94l-.31.23,5.59,14.36c-2.95,1.95-6.04,3.75-9.19,5.35l-9.73-11.96-.35.16c-7.74,3.52-15.96,5.75-24.41,6.65l-.38.04-2.34,15.25c-3.53.21-7.11.22-10.63.03l-2.44-15.23-.38-.04c-4.24-.42-8.44-1.18-12.5-2.25-4.04-1.07-8.07-2.49-11.97-4.21l-.35-.16-9.65,12.04c-.48-.24-.95-.49-1.43-.74l19.78-31.07c2.49,1.05,5.06,1.94,7.72,2.64,4.91,1.29,9.88,1.94,14.82,1.94,10.06,0,19.98-2.66,28.9-7.85,13.31-7.75,22.81-20.21,26.74-35.1,3.93-14.89,1.83-30.42-5.91-43.72-7.75-13.31-20.21-22.81-35.1-26.74-30.73-8.12-62.34,10.28-70.46,41.01-3.93,14.88-1.83,30.41,5.91,43.72,3.54,6.07,8.06,11.34,13.34,15.66l-12.41,17.2c-5.23-4.29-9.89-9.21-13.88-14.7l-.23-.32-14.36,5.6c-1.95-2.95-3.74-6.04-5.35-9.2l11.96-9.72-.16-.35c-3.51-7.74-5.75-15.96-6.64-24.41l-.04-.38-15.25-2.34c-.22-3.54-.23-7.11-.04-10.63l15.23-2.44.04-.39c.43-4.23,1.19-8.44,2.26-12.49s2.48-8.08,4.21-11.97l.15-.35-12.04-9.65c1.58-3.15,3.35-6.26,5.29-9.23l14.41,5.5.22-.31c4.96-6.91,10.96-12.95,17.84-17.94l.31-.23-5.6-14.36c2.95-1.95,6.05-3.75,9.2-5.35l9.72,11.96.35-.16c7.75-3.51,15.96-5.75,24.41-6.65l.39-.04,2.33-15.25c3.54-.21,7.11-.22,10.64-.03l2.44,15.23.38.04c4.24.42,8.44,1.18,12.49,2.25s8.08,2.49,11.97,4.21l.35.16,9.65-12.04c3.16,1.57,6.26,3.35,9.23,5.28l-5.5,14.42.31.22c6.91,4.96,12.95,10.96,17.95,17.83l.22.32,14.36-5.6c1.95,2.95,3.75,6.04,5.36,9.2l-11.96,9.72.16.35c3.51,7.74,5.74,15.96,6.64,24.41l.04.38,15.25,2.34Z"/>
  <path d="M191.05,89.63c.25,3.85.26,7.74.04,11.56l-.02.4-15.27,2.45c-.44,4.16-1.19,8.28-2.24,12.26-1.06,3.99-2.44,7.94-4.11,11.77l12.06,9.67-.17.36c-1.7,3.44-3.63,6.82-5.74,10.03l-.22.34-14.45-5.51c-4.9,6.76-10.79,12.69-17.52,17.63l5.61,14.39-.34.22c-3.19,2.13-6.56,4.09-9.99,5.82l-.36.18-9.75-11.99c-7.62,3.42-15.68,5.61-23.98,6.53l-2.34,15.28-.4.03c-2.02.13-4.05.19-6.08.19-1.83,0-3.66-.05-5.48-.15l-.4-.03-2.45-15.26c-4.16-.44-8.28-1.19-12.26-2.25-3.98-1.05-7.93-2.43-11.77-4.1l-9.67,12.06-.36-.18c-.63-.31-1.26-.64-1.89-.97l-8.12,12.75-.02.03-.51.8-.08-.05h0l-.07-.05-.68-.44.04-.07-14.42-11.53.15-.18h-.02s17.03-23.6,17.03-23.6c-5.22-4.27-9.88-9.16-13.88-14.62l-14.39,5.61-.23-.33c-2.13-3.2-4.09-6.56-5.82-10l-.18-.36,11.99-9.74c-3.41-7.62-5.61-15.69-6.53-23.98l-15.28-2.34-.03-.4c-.24-3.85-.26-7.74-.03-11.56l.02-.4,15.27-2.45c.43-4.16,1.19-8.28,2.24-12.26s2.43-7.94,4.11-11.77l-12.07-9.67.18-.36c1.69-3.44,3.63-6.81,5.74-10.03l.22-.34,14.45,5.51c4.9-6.76,10.79-12.69,17.52-17.63l-5.61-14.39.33-.22c3.2-2.13,6.56-4.09,10-5.82l.36-.18,9.74,11.99c7.62-3.41,15.69-5.61,23.99-6.53l2.33-15.28.41-.03c3.84-.25,7.73-.26,11.56-.04l.4.03,2.44,15.26c4.16.44,8.29,1.19,12.27,2.25,3.97,1.05,7.93,2.43,11.76,4.1l9.67-12.06.36.18c3.44,1.69,6.81,3.62,10.04,5.74l.33.22-5.51,14.44c6.76,4.9,12.69,10.79,17.63,17.53l14.39-5.61.22.33c2.13,3.2,4.09,6.56,5.82,10l.18.36-11.98,9.74c3.41,7.62,5.6,15.68,6.52,23.98l15.29,2.34.02.4ZM190.11,100.73c.19-3.52.18-7.09-.03-10.63l-15.25-2.34-.04-.38c-.9-8.45-3.13-16.67-6.64-24.41l-.16-.35,11.96-9.72c-1.61-3.16-3.41-6.25-5.36-9.2l-14.36,5.6-.22-.32c-5-6.87-11.04-12.87-17.95-17.83l-.31-.22,5.5-14.42c-2.97-1.93-6.07-3.71-9.23-5.28l-9.65,12.04-.35-.16c-3.89-1.72-7.92-3.14-11.97-4.21s-8.25-1.83-12.49-2.25l-.38-.04-2.44-15.23c-3.53-.19-7.1-.18-10.64.03l-2.33,15.25-.39.04c-8.45.9-16.66,3.14-24.41,6.65l-.35.16-9.72-11.96c-3.15,1.6-6.25,3.4-9.2,5.35l5.6,14.36-.31.23c-6.88,4.99-12.88,11.03-17.84,17.94l-.22.31-14.41-5.5c-1.94,2.97-3.71,6.08-5.29,9.23l12.04,9.65-.15.35c-1.73,3.89-3.14,7.92-4.21,11.97s-1.83,8.26-2.26,12.49l-.04.39-15.23,2.44c-.19,3.52-.18,7.09.04,10.63l15.25,2.34.04.38c.89,8.45,3.13,16.67,6.64,24.41l.16.35-11.96,9.72c1.61,3.16,3.4,6.25,5.35,9.2l14.36-5.6.23.32c3.99,5.49,8.65,10.41,13.88,14.7l12.41-17.2c-5.28-4.32-9.8-9.59-13.34-15.66-7.74-13.31-9.84-28.84-5.91-43.72,8.12-30.73,39.73-49.13,70.46-41.01,14.89,3.93,27.35,13.43,35.1,26.74,7.74,13.3,9.84,28.83,5.91,43.72-3.93,14.89-13.43,27.35-26.74,35.1-8.92,5.19-18.84,7.85-28.9,7.85-4.94,0-9.91-.65-14.82-1.94-2.66-.7-5.23-1.59-7.72-2.64l-19.78,31.07c.48.25.95.5,1.43.74l9.65-12.04.35.16c3.9,1.72,7.93,3.14,11.97,4.21,4.06,1.07,8.26,1.83,12.5,2.25l.38.04,2.44,15.23c3.52.19,7.1.18,10.63-.03l2.34-15.25.38-.04c8.45-.9,16.67-3.13,24.41-6.65l.35-.16,9.73,11.96c3.15-1.6,6.24-3.4,9.19-5.35l-5.59-14.36.31-.23c6.88-4.99,12.88-11.03,17.83-17.94l.23-.31,14.41,5.5c1.93-2.97,3.71-6.07,5.28-9.23l-12.04-9.65.16-.35c1.72-3.89,3.14-7.92,4.21-11.97,1.07-4.06,1.83-8.26,2.25-12.49l.04-.39,15.23-2.44ZM149.03,109.82c3.87-14.62,1.81-29.88-5.8-42.96-7.62-13.08-19.86-22.41-34.49-26.27-4.83-1.28-9.69-1.89-14.46-1.89-25.09,0-48.08,16.81-54.78,42.18-3.87,14.63-1.8,29.89,5.81,42.97,3.46,5.95,7.89,11.11,13.06,15.35l37.95-52.61.06-2.18h.02l-.03-.15c.07-.01.15-.02.22-.03l.21-.56c-5.15-4-10.74-7.17-16.63-9.41-12.03-4.59-22.46-4.28-26.38-4.17-1.55.04-1.83.05-2.07-.18l-.15-.14v-.5s.26-.21.26-.21c1.19-.83,18.05-3.83,36.41,3.04,3.79,1.42,7.48,3.2,10.99,5.3l.55-1.42.36.14c10.76-.59,15.03,4.35,16.6,7.36l.22.34-2.08,2.35,6.09,2.72,17.48,14.88-4.01,11.63-16.64-21.77-7.32-2.51-.53.59-.07-.06.02.04-2.61,1.07-34.92,54.84c2.4.99,4.87,1.85,7.43,2.52,14.63,3.87,29.88,1.8,42.96-5.81s22.41-19.86,26.27-34.49ZM134.1,113.31l3.18-9.22-16.9-14.39-6.2-2.75-2.98,3.36,7.21,2.47,15.69,20.53ZM109.82,90.34l5.87-6.69c-1.57-2.79-5.58-6.99-15.27-6.54l-2.69,6.95c3.62-.34,7.71.88,10.17,3.13,1.07.98,1.72,2.05,1.92,3.15ZM107.15,91.74l1.75-.72c-.04-1.31-.91-2.39-1.67-3.09-2.38-2.17-6.4-3.28-9.87-2.81l-.04,1.54c5.2.7,9.16,2.79,9.83,5.08ZM106.25,92.54c.17-1.85-3.55-4.23-9.42-4.94l-37.49,51.96c-.17.2-.32.42-.46.66-.1.14-.2.28-.29.44l-.03-.03-12.41,17.21s.01,0,.02,0c-.03.04-.06.09-.08.14-.12.16-.23.32-.33.49-.05.07-.1.14-.14.21-.02,0-.04-.02-.06-.04l-16.57,22.97,13.6,10.86,8.02-12.58s-.01-.01-.02-.01c0-.01.02-.03.03-.04.19-.25.36-.52.5-.81.01.01.02.01.03.01l19.61-30.79c.27-.33.49-.69.66-1.07.01,0,.01.01.02.01l34.81-54.66ZM97.18,82.7l1.69-4.36c-3.51-2.1-7.2-3.89-10.98-5.3-12.84-4.8-24.63-4.68-30.87-4,5.15.02,13.81.59,23.51,4.29,5.89,2.24,11.48,5.4,16.65,9.37Z"/>
  <polygon class="cls-1" points="137.28 104.09 134.1 113.31 118.41 92.78 111.2 90.31 114.18 86.95 120.38 89.7 137.28 104.09"/>
  <path class="cls-1" d="M115.69,83.65l-5.87,6.69c-.2-1.1-.85-2.17-1.92-3.15-2.46-2.25-6.55-3.47-10.17-3.13l2.69-6.95c9.69-.45,13.7,3.75,15.27,6.54Z"/>
  <path class="cls-1" d="M108.9,91.02l-1.75.72c-.67-2.29-4.63-4.38-9.83-5.08l.04-1.54c3.47-.47,7.49.64,9.87,2.81.76.7,1.63,1.78,1.67,3.09Z"/>
  <path class="cls-2" d="M96.83,87.6c5.87.71,9.59,3.09,9.42,4.94l-34.81,54.66s0-.01-.02-.01c-.17.38-.39.74-.66,1.07l-19.61,30.79s-.02,0-.03-.01c-.14.29-.31.56-.5.81-.01.01-.02.03-.03.04,0,0,0,.01.02.01l-8.02,12.58-13.6-10.86,16.57-22.97s.04.03.06.04c.04-.07.09-.14.14-.21.1-.17.21-.33.33-.49.02-.05.05-.1.08-.14-.01,0-.01,0-.02,0l12.41-17.21.03.03c.09-.16.19-.3.29-.44.14-.24.29-.46.46-.66l37.49-51.96Z"/>
  <path class="cls-1" d="M98.87,78.34l-1.69,4.36c-5.17-3.97-10.76-7.13-16.65-9.37-9.7-3.7-18.36-4.27-23.51-4.29,6.24-.68,18.03-.8,30.87,4,3.78,1.41,7.47,3.2,10.98,5.3Z"/>
</svg>