<?xml version="1.0" encoding="UTF-8"?>
<svg id="Layer_1" data-name="Layer 1" xmlns="http://www.w3.org/2000/svg" width="1098.59" height="825.71" viewBox="0 0 1098.59 825.71">
  <defs>
    <style>
      .cls-1 {
        fill: aqua;
      }

      .cls-2 {
        fill: #29abe2;
      }

      .cls-3 {
        fill: #f9b9ac;
      }

      .cls-4 {
        stroke-width: 18.19px;
      }

      .cls-4, .cls-5, .cls-6, .cls-7, .cls-8, .cls-9, .cls-10 {
        fill: none;
        stroke: #000;
        stroke-miterlimit: 10;
      }

      .cls-11 {
        fill: #fff;
      }

      .cls-5 {
        stroke-width: 8.58px;
      }

      .cls-12 {
        fill: #f79f93;
      }

      .cls-13 {
        fill: #8b5e3b;
      }

      .cls-14 {
        fill: #603813;
      }

      .cls-6 {
        stroke-width: 14.68px;
      }

      .cls-7 {
        stroke-width: 6.99px;
      }

      .cls-15 {
        fill: #322f31;
      }

      .cls-8 {
        stroke-width: 3px;
      }

      .cls-9 {
        stroke-width: 5.14px;
      }

      .cls-10 {
        stroke-width: 5px;
      }

      .cls-16 {
        fill: #005035;
      }
    </style>
  </defs>
  <g>
    <path class="cls-13" d="M552.28,287.95c8.68,1.36,55.87,9.02,5.88,0,0,0-1.86-.23-5.88,0ZM748.24,313.35c-5.63-.08-11.41-.24-17.33-.49-26-1.13-54.87-4.05-86.76-9.4-63.69-10.69-87.14-14.62-92.12-15.5.08-.01.16-.01.23-.01-1.52-.23-1.84-.27-.23.01-13.25.8-49.11,6.6-117.92,40.87-7.95,4.23-15.9,8.46-23.84,12.69-16.34,6.29-59.69,20.84-108.82,19.89-31.36-.61-65.08-7.54-95.62-26.95-47.28-30.05-66.71-75.41-74.14-95.44,89.54,2.34,168.74,1.92,235.08.42,21.4-.49,41.46-1.1,60.1-1.76,107.03-3.81,187.03-6.88,292.5-21.47,9.79-1.36,19.41-2.76,28.85-4.2,84.13-12.8,153.86-28.53,204.62-41.42,0,0-2.95,54.12-26.56,103.31h-.02c-.79.61-53.23,41.13-178.02,39.45Z"/>
    <path d="M926.26,273.89h.02c-12.8,26.65-31.66,51.86-59.4,66.22-.89,1-1.78,1.98-2.68,2.92,0,0-17.22,31.48-53.11,30.1-16.27-13.71-33.85-4.3-45.15,5.23h-.01c4.99-4.56-15.38-64.65-17.69-65.01,124.79,1.68,177.23-38.84,178.02-39.46Z"/>
    <path class="cls-12" d="M753.95,390.69s4.68-6.19,11.99-12.33c11.3-9.53,28.88-18.94,45.15-5.23,4.58,3.85,9.04,9.54,13.24,17.56,0,0,14.9,49.29-41.49,107.2-.54.57-1.08,1.15-1.63,1.72.11,2.06.2,4.27.08,4.28-.01,0-.02-.01-.03-.04-.3-.87-.71-14.83-2.94-23.07-5.78-21.4-26.84-32.24-25.77-42.13,1.96-18.1,2.22-34.04,1.4-47.96Z"/>
    <path class="cls-14" d="M528.32,531.77l1.64-1.21c11.78,15.29,32.38,25.42,55.82,25.42,34.25,0,62.43-21.63,65.9-49.37l.6.08c5.88-19.61,103.24-35.55,103.24-35.55,11.52,11.51,19.4,22.62,24.59,33.26,3.84,7.9,6.21,15.55,7.47,22.93.29,1.67,1.36,8.58,1.08,17.96-1.08,35.35-19.99,53.08-16.22,75.35,1.6,9.49,7.21,17.1,10.11,18.17,2.23.83,2.53-.5-1.66,4.38-8.45,9.87-19.73-4.23-19.73-4.23-1.41,22.56-78.94,85.99-78.94,85.99l-2.82-23.96c-19.74,45.11-100.09,97.27-100.09,97.27-76.12-11.28-122.64-94.45-133.92-95.86-11.28-1.41-7.05,29.6-7.05,29.6-76.12-2.82-83.92-150.84-83.92-150.84-10.74-10.73-29.52,69.77-29.52,69.77-21.35-30.5-18.57-82.5-9.19-130.13.01-.03.01-.06.02-.08,0-.02,0-.03.01-.05h0c6.9-34.96,17.34-67.55,24.4-87.56,4.46-12.64,7.57-20.26,7.57-20.26,0,0-6.71-32.95-36.23-30.27l-.27.03s-6.79,1.68-14.13,7.27c0,0-3.26-15.4,4.37-28.47,49.13.95,92.48-13.6,108.82-19.89,4.47-1.72,6.92-2.82,6.92-2.82-33.83,25.37-31.01,120.36-31.01,120.36,0,0-27.82,37.05-25.98,73.16,0,0,40.67-64.43,71.09-59.41,10.11,10.2,23.86,22.21,41.67,33.42,20.68,13.03,40.17,20.79,55.36,25.54Z"/>
    <path class="cls-12" d="M549.19,411.02l.11-1.43s-1.47-52.67-35.38-72.92l10.07-6.45-16.27-22.52-79.06,45.03,12.9,30.28,16.39-10.5c-10.46,42.42,8.68,67.18,8.68,67.18,2.94-2.96,6.43-6.09,10.52-9.15,11.02-8.25,26.38-16.04,46.84-18.78,7.67-1.04,16.06-1.37,25.2-.74ZM651.68,506.61c-3.47,27.74-31.65,49.37-65.9,49.37-23.44,0-44.04-10.13-55.82-25.42l-1.64,1.21c-15.19-4.75-34.68-12.51-55.36-25.54-17.81-11.21-31.56-23.22-41.67-33.42-30.42-5.02-71.09,59.41-71.09,59.41-1.84-36.11,25.98-73.16,25.98-73.16,0,0-2.82-94.99,31.01-120.36,0,0-2.45,1.1-6.92,2.82,7.94-4.23,15.89-8.46,23.84-12.69,68.81-34.27,104.67-40.07,117.92-40.87,4.98.88,28.43,4.81,92.12,15.5,31.89,5.35,60.76,8.27,86.76,9.4.55.66,19.86,24.19,23.04,77.83.82,13.92.56,29.86-1.4,47.96-1.07,9.89,19.99,20.73,25.77,42.13,2.23,8.24,2.64,22.2,2.94,23.07l-1.15.55c-5.19-10.64-13.07-21.75-24.59-33.26,0,0-97.36,15.94-103.24,35.55l-.6-.08ZM687.01,420.13c5.88,3.25,10.53,6.9,14.16,10.41,0,0,16.46-34.62-2.9-70.76l13.56,5.85,12.34-24.67-86.92-33.26-11.21,20.92,15.04,6.49c-35.12,35.58-17.33,75.59-17.33,75.59,4.27-.52,8.35-.84,12.24-.99,22.87-.93,39.36,3.97,51.02,10.42ZM589.96,503.68c2.74-9.83-5.21-20.64-17.75-24.13-12.55-3.5-24.94,1.64-27.68,11.48-2.74,9.83,5.21,20.63,17.76,24.13,12.54,3.49,24.94-1.65,27.67-11.48ZM485.87,497.18c33.65,3.65,0-51.5,0-51.5,0,0-33.66,47.85,0,51.5Z"/>
    <path class="cls-14" d="M748.24,313.35c2.31.36,22.68,60.45,17.69,65h.01c-7.31,6.15-11.99,12.34-11.99,12.34-3.18-53.64-22.49-77.17-23.04-77.83,5.92.25,11.7.41,17.33.49Z"/>
    <polygon points="724.17 340.96 711.83 365.63 698.27 359.78 641.08 335.11 626.04 328.62 637.25 307.7 724.17 340.96"/>
    <path class="cls-13" d="M748.22,212.01c-9.44,1.44-19.06,2.84-28.85,4.2-105.47,14.59-185.47,17.66-292.5,21.47-18.64.66-38.7,1.27-60.1,1.76h0s22.06-157.66,152.75-188.96c0,0,162.77-41.54,228.7,161.53ZM603.88,98.93l-11.01-11.56-56.79-1.72-13.46,10.56-14.44,89.93,14.54,14.98,47.87-.43,19.75-19.18,3.9-37.16s-30.52-1.45-34.32.31-2.21,38.44-2.21,38.44c-14.21-24.48-9.23-38.34-9.23-38.34l-10.59.53,3.7-11.26,9.44-.95c2.89-19.45,21.57-38.19,21.57-38.19l-10.66,38.53,34.73-.75,7.21-33.74Z"/>
    <path class="cls-11" d="M698.27,359.78c19.36,36.14,2.9,70.76,2.9,70.76-3.63-3.51-8.28-7.16-14.16-10.41,5.39-68.63-30.11-61.1-25.69-55.33s3.62,20.76-9.28,20.87c-12.91.1-10.96-13.16-10.96-13.16-9.39,3.03-5.09,37.2-5.09,37.2-3.89.15-7.97.47-12.24.99,0,0-17.79-40.01,17.33-75.59l57.19,24.67Z"/>
    <path d="M661.32,364.8c-4.42-5.77,31.08-13.3,25.69,55.33-11.66-6.45-28.15-11.35-51.02-10.42,0,0-4.3-34.17,5.09-37.2,0,0-1.95,13.26,10.96,13.16,12.9-.11,13.7-15.1,9.28-20.87ZM682.91,413.07c.19-6.58-.13-12.09-.52-16.16-.82-8.69-1.35-13.74-4.43-19.29-2.26-4.06-5.03-6.86-7.04-8.6.78,4.72,1.37,11.61.17,19.75-1.28,8.76-4.14,15.57-6.4,19.99,6.07,1.44,12.15,2.88,18.22,4.31Z"/>
    <path class="cls-15" d="M682.39,396.91c.39,4.07.71,9.58.52,16.16-6.07-1.43-12.15-2.87-18.22-4.31,2.26-4.42,5.12-11.23,6.4-19.99,1.2-8.14.61-15.03-.17-19.75,2.01,1.74,4.78,4.54,7.04,8.6,3.08,5.55,3.61,10.6,4.43,19.29Z"/>
    <path class="cls-16" d="M592.87,87.37l11.01,11.56-7.21,33.74-34.73.75,10.66-38.53s-18.68,18.74-21.57,38.19l-9.44.95-3.7,11.26,10.59-.53s-4.98,13.86,9.23,38.34c0,0-1.59-36.68,2.21-38.44s34.32-.31,34.32-.31l-3.9,37.16-19.75,19.18-47.87.43-14.54-14.98,14.44-89.93,13.46-10.56,56.79,1.72Z"/>
    <path class="cls-3" d="M572.21,479.55c12.54,3.49,20.49,14.3,17.75,24.13-2.73,9.83-15.13,14.97-27.67,11.48-12.55-3.5-20.5-14.3-17.76-24.13,2.74-9.84,15.13-14.98,27.68-11.48Z"/>
    <path class="cls-1" d="M558.16,287.95c49.99,9.02,2.8,1.36-5.88,0,4.02-.23,5.88,0,5.88,0Z"/>
    <path class="cls-1" d="M552.26,287.95c-.07,0-.15,0-.23.01-1.61-.28-1.29-.24.23-.01Z"/>
    <path class="cls-11" d="M549.3,409.59l-.11,1.43c-9.14-.63-17.53-.3-25.2.74h0c-1.05-54.22-31.12-47.1-27.1-46.13s-2.41,19.93-10.45,24.76c-8.04,4.82-10.12-4.72-10.12-4.72,0,0-9.26,8.63.83,44.87-4.09,3.06-7.58,6.19-10.52,9.15,0,0-19.14-24.76-8.68-67.18l55.97-35.84c33.91,20.25,35.38,72.92,35.38,72.92Z"/>
    <path d="M523.99,411.75h0c-20.46,2.75-35.82,10.54-46.84,18.79-10.09-36.24-.83-44.87-.83-44.87,0,0,2.08,9.54,10.12,4.72,8.04-4.83,14.47-23.79,10.45-24.76s26.05-8.09,27.1,46.12ZM519.65,408.96c2.74-12.59-.18-21.41-3.79-27.09-2.44-3.84-5.45-6.45-7.9-8.21.65,5.19,1.01,11.78.3,19.34-.78,8.31-2.6,15.26-4.4,20.52l15.79-4.56Z"/>
    <polygon points="507.72 307.7 523.99 330.22 513.92 336.67 457.95 372.51 441.56 383.01 428.66 352.73 507.72 307.7"/>
    <path class="cls-15" d="M515.86,381.87c3.61,5.68,6.53,14.5,3.79,27.09l-15.79,4.56c1.8-5.26,3.62-12.21,4.4-20.52.71-7.56.35-14.15-.3-19.34,2.45,1.76,5.46,4.37,7.9,8.21Z"/>
    <path class="cls-2" d="M485.87,445.68s33.65,55.15,0,51.5c-33.66-3.65,0-51.5,0-51.5Z"/>
    <path class="cls-12" d="M340.14,433.11c-7.06,20.01-17.5,52.6-24.4,87.55-21.88-32.75-32.1-57.92-35.4-77.2-3.82-22.21,1.53-36.61,8.79-45.79,2.52-3.19,5.27-5.75,7.95-7.79,7.34-5.59,14.13-7.27,14.13-7.27l.27-.03c29.52-2.68,36.23,30.27,36.23,30.27,0,0-3.11,7.62-7.57,20.26Z"/>
    <path d="M301.45,361.41c-7.63,13.07-4.37,28.47-4.37,28.47-2.68,2.04-5.43,4.6-7.95,7.79-7.26,9.18-12.61,23.58-8.79,45.79l-6.64-2.43c-18.1-6.98-187.76-76.22-142.01-202.01,7.43,20.03,26.86,65.39,74.14,95.44,30.54,19.41,64.26,26.34,95.62,26.95Z"/>
  </g>
  <g>
    <path class="cls-10" d="M315.71,520.8c-.1.36-.45,1.35-1.43,1.33"/>
    <path class="cls-10" d="M315.74,520.66c6.9-34.95,17.34-67.54,24.4-87.55,4.46-12.64,7.57-20.26,7.57-20.26,0,0-6.71-32.95-36.23-30.27l-.27.03s-6.79,1.68-14.13,7.27c-2.68,2.04-5.43,4.6-7.95,7.79-7.26,9.18-12.61,23.58-8.79,45.79,3.3,19.28,13.52,44.45,35.4,77.2"/>
    <path class="cls-10" d="M315.74,520.66h0s-.01.04-.01.06c-.01.02-.01.05-.02.08"/>
    <path class="cls-10" d="M652.28,506.69c5.88-19.61,103.24-35.55,103.24-35.55,11.52,11.51,19.4,22.62,24.59,33.26,3.84,7.9,6.21,15.55,7.47,22.93.29,1.67,1.36,8.58,1.08,17.96-1.08,35.35-19.99,53.08-16.22,75.35,1.6,9.49,7.21,17.1,10.11,18.17,2.23.83,2.53-.5-1.66,4.38-8.45,9.87-19.73-4.23-19.73-4.23-1.41,22.56-78.94,85.99-78.94,85.99l-2.82-23.96c-19.74,45.11-100.09,97.27-100.09,97.27-76.12-11.28-122.64-94.45-133.92-95.86-11.28-1.41-7.05,29.6-7.05,29.6-76.12-2.82-83.92-150.84-83.92-150.84-10.74-10.73-29.52,69.77-29.52,69.77-21.35-30.5-18.57-82.5-9.19-130.13"/>
    <path class="cls-10" d="M273.7,441.03c-18.1-6.98-187.76-76.22-142.01-202.01"/>
    <path class="cls-7" d="M131.69,239.02c89.54,2.34,168.74,1.92,235.08.42,21.4-.49,41.46-1.1,60.1-1.76,107.03-3.81,187.03-6.88,292.5-21.47,9.79-1.36,19.41-2.76,28.85-4.2,84.13-12.8,153.86-28.53,204.62-41.42,0,0-2.95,54.12-26.56,103.31-12.8,26.64-31.66,51.85-59.4,66.21-.89,1-1.78,1.98-2.68,2.92,0,0-17.22,31.48-53.11,30.1"/>
    <path class="cls-10" d="M756.78,389.88c-1.69.48-2.83.81-2.83.81"/>
    <path class="cls-10" d="M529.78,532.22c-.48-.15-.97-.3-1.46-.45-15.19-4.75-34.68-12.51-55.36-25.54-17.81-11.21-31.56-23.22-41.67-33.42-.5.24-1.02.5-1.57.78"/>
    <path class="cls-10" d="M386.08,459.36c.03-.1.07-.2.1-.3,0,0-2.82-94.99,31.01-120.36,0,0-2.45,1.1-6.92,2.82-16.34,6.29-59.69,20.84-108.82,19.89-31.36-.61-65.08-7.54-95.62-26.95-47.28-30.05-66.71-75.41-74.14-95.44"/>
    <path class="cls-10" d="M552.26,287.95c-.07,0-.15,0-.23.01-13.25.8-49.11,6.6-117.92,40.87-7.95,4.23-15.9,8.46-23.84,12.69"/>
    <path class="cls-10" d="M552.28,287.95c8.68,1.36,55.87,9.02,5.88,0,0,0-1.86-.23-5.88,0Z"/>
    <path class="cls-10" d="M552.28,287.95h-.02"/>
    <path class="cls-10" d="M926.27,273.88h-.01c-.79.63-53.23,41.15-178.02,39.47-5.63-.08-11.41-.24-17.33-.49-26-1.13-54.87-4.05-86.76-9.4-63.69-10.69-87.14-14.62-92.12-15.5-1.61-.28-1.29-.24.23-.01"/>
    <path class="cls-9" d="M640.86,470.17c7.06,8.77,11.18,19.31,11.18,30.66,0,1.95-.12,3.88-.36,5.78-3.47,27.74-31.65,49.37-65.9,49.37-23.44,0-44.04-10.13-55.82-25.42-6.61-8.58-10.44-18.78-10.44-29.73s3.82-21.12,10.42-29.69"/>
    <path class="cls-10" d="M366.77,239.43s22.06-157.65,152.75-188.95c0,0,162.77-41.54,228.7,161.53"/>
    <polygon class="cls-10" points="457.95 372.51 441.56 383.01 428.66 352.73 507.72 307.7 523.99 330.22 513.92 336.67 457.95 372.51"/>
    <polygon class="cls-10" points="641.08 335.11 626.04 328.62 637.25 307.7 724.17 340.96 711.83 365.63 698.27 359.78 641.08 335.11"/>
    <path class="cls-10" d="M454.28,455.52s3.8-7.2,12.35-15.83c2.94-2.96,6.43-6.09,10.52-9.15,11.02-8.25,26.38-16.04,46.84-18.78,7.67-1.04,16.06-1.37,25.2-.74,4.86.33,9.94.92,15.24,1.83"/>
    <path class="cls-10" d="M712.38,445.68s-2.95-7.19-11.21-15.14c-3.63-3.51-8.28-7.16-14.16-10.41-11.66-6.45-28.15-11.35-51.02-10.42-3.89.15-7.97.47-12.24.99-4.3.52-8.79,1.23-13.49,2.15"/>
    <path class="cls-10" d="M466.63,439.69s-19.14-24.76-8.68-67.18"/>
    <path class="cls-10" d="M549.3,409.59s-1.47-52.67-35.38-72.92"/>
    <path class="cls-10" d="M623.75,410.7s-17.79-40.01,17.33-75.59"/>
    <path class="cls-10" d="M701.17,430.54s16.46-34.62-2.9-70.76"/>
    <path class="cls-5" d="M489.65,634.82s98.1-84.43,171.67,6.43"/>
    <path class="cls-10" d="M477.15,430.54c-10.09-36.24-.83-44.87-.83-44.87,0,0,2.08,9.54,10.12,4.72,8.04-4.83,14.47-23.79,10.45-24.76s26.05-8.09,27.1,46.12"/>
    <path class="cls-10" d="M635.99,409.71s-4.3-34.17,5.09-37.2c0,0-1.95,13.26,10.96,13.16,12.9-.11,13.7-15.1,9.28-20.87s31.08-13.3,25.69,55.33h0"/>
    <path class="cls-10" d="M753.95,390.69s4.68-6.19,11.99-12.33c11.3-9.53,28.88-18.94,45.15-5.23,4.58,3.85,9.04,9.54,13.24,17.56,0,0,14.9,49.29-41.49,107.2-.54.57-1.08,1.15-1.63,1.72.11,2.06.2,4.27.08,4.28-.01,0-.02-.01-.03-.04-.3-.87-.71-14.83-2.94-23.07-5.78-21.4-26.84-32.24-25.77-42.13,1.96-18.1,2.22-34.04,1.4-47.96-3.18-53.64-22.49-77.17-23.04-77.83h-.01"/>
    <path class="cls-10" d="M485.87,445.68s-33.66,47.85,0,51.5c33.65,3.65,0-51.5,0-51.5Z"/>
    <line class="cls-10" x1="273.7" y1="441.03" x2="280.34" y2="443.46"/>
    <path class="cls-8" d="M508.18,186.14l14.44-89.93,13.46-10.56,56.79,1.72,11.01,11.56-7.21,33.74-34.73.75,10.66-38.53s-18.68,18.74-21.57,38.19l-9.44.95-3.7,11.26,10.59-.53s-4.98,13.86,9.23,38.34c0,0-1.59-36.68,2.21-38.44s34.32-.31,34.32-.31l-3.9,37.16-19.75,19.18-47.87.43-14.54-14.98Z"/>
    <path class="cls-6" d="M340.14,433.11s-34.53-40.48-27.05,12.57"/>
    <path class="cls-4" d="M756.78,410.7s47.13-39.87,31.92,9.44"/>
    <path class="cls-10" d="M297.08,389.88s-3.26-15.4,4.37-28.47c.03-.06.06-.12.1-.18"/>
    <path class="cls-10" d="M748.22,313.34s0,0,.02.01c2.31.36,22.68,60.45,17.69,65"/>
    <path class="cls-10" d="M386.18,459.06s-27.82,37.05-25.98,73.16c0,0,40.67-64.43,71.09-59.41"/>
  </g>
</svg>